<svg xmlns="http://www.w3.org/2000/svg" viewBox="0 0 24 24">
  <path fill="currentColor" d="m10.6 2 2.8 0 .6 2.2c.55.2 1.06.5 1.52.88l2.18-.63 1.4 2.42-1.6 1.6c.1.5.1 1.05 0 1.56l1.6 1.6-1.4 2.42-2.18-.63c-.46.38-.97.68-1.52.88L13.4 16h-2.8l-.6-2.2a5.23 5.23 0 0 1-1.52-.88l-2.18.63-1.4-2.42 1.6-1.6a5.3 5.3 0 0 1 0-1.56l-1.6-1.6 1.4-2.42 2.18.63c.46-.38.97-.68 1.52-.88L10.6 2Zm.9 2-.42 1.54-.45.14a3.58 3.58 0 0 0-1.32.77l-.35.33-1.53-.44-.37.64 1.12 1.12-.1.47a3.7 3.7 0 0 0 0 1.36l.1.47-1.12 1.12.37.64 1.53-.44.35.33c.38.36.83.62 1.32.77l.45.14L11.5 14h1l.42-1.54.45-.14a3.58 3.58 0 0 0 1.32-.77l.35-.33 1.53.44.37-.64-1.12-1.12.1-.47a3.7 3.7 0 0 0 0-1.36l-.1-.47 1.12-1.12-.37-.64-1.53.44-.35-.33a3.58 3.58 0 0 0-1.32-.77l-.45-.14L12.5 4h-1ZM12 7a2.25 2.25 0 1 1 0 4.5A2.25 2.25 0 0 1 12 7Zm-7 11h14v2H5v-2Z"/>
</svg>
