<svg xmlns="http://www.w3.org/2000/svg" viewBox="0 0 32 32" width="32" height="32"><circle cx="16" cy="16" r="16" fill="#F7931A"/><path fill="#fff" d="M22.4 14.1c.3-2.1-1.3-3.2-3.5-4l.7-2.8-1.7-.4-.7 2.7c-.45-.11-.91-.22-1.37-.32l.7-2.75-1.7-.43-.7 2.83c-.37-.08-.73-.17-1.08-.26l-2.36-.59-.46 1.83s1.27.29 1.24.31c.69.17.82.63.8.99l-.8 3.22c.05.01.11.03.18.06l-.18-.05-1.13 4.51c-.08.21-.3.53-.78.41.02.02-1.24-.31-1.24-.31l-.85 1.96 2.22.55c.41.11.82.21 1.22.32l-.71 2.86 1.7.43.71-2.84c.47.13.92.24 1.36.35l-.7 2.82 1.7.43.71-2.86c2.92.55 5.11.33 6.03-2.31.75-2.12-.03-3.35-1.57-4.15 1.12-.26 1.96-1 2.18-2.52zm-3.9 5.49c-.53 2.12-4.1.98-5.26.69l.94-3.77c1.16.29 4.87.86 4.32 3.08zm.53-5.52c-.48 1.93-3.45.95-4.42.71l.85-3.42c.96.24 4.07.69 3.57 2.71z"/></svg>
