<?xml version="1.0" encoding="UTF-8"?>
<svg id="Capa_2" data-name="Capa 2" xmlns="http://www.w3.org/2000/svg" viewBox="0 0 342.14 327.52">
  <defs>
    <style>
      .cls-1 {
        fill: #302f35;
      }

      .cls-2 {
        fill: #dfaa75;
      }

      .cls-3 {
        fill: #b9875f;
      }
    </style>
  </defs>
  <g id="Capa_1-2" data-name="Capa 1">
    <g id="isotype">
      <g>
        <path class="cls-2" d="M148.89,34.84c-.54-1.34-1.03-2.7-1.49-4.07-2.2-6.7-2.97-13.91.41-20.38,2.42-4.68,6.69-8.14,11.77-9.52,5.92-1.66,12.25-.91,17.61,2.09,11.39,6.35,14.31,18.49,17.43,29.95,18.63.92,37.09,3.96,55.03,9.07,31.99,9.25,61.49,26.47,78.01,56.43,6.52,8.45,11.18,23.18,13.08,33.65,5.12,28.19-3.78,59.69-27.09,77.47-16.1,12.28-32.99,14.93-52.51,14.58l-33.1-.02c17.41,12.19,28.31,26.57,35.55,46.48,5.53,15.2-.67,18.29-12.27,26.02-19.62,13.07-38.8,20.23-61.11,26.83-7.12-47.2-29.25-77.46-74.18-95.71-24.39-9.91-45.43-15.38-64.72-35.29-18.77-19.38-26.96-42.78-27.14-69.58-.14-20.31,16.79-35.37,30.64-48.85-4.69-8.19-11.91-18.1-12.86-27.16-.81-7.76,1.59-15.52,6.65-21.46,5.56-6.57,13.52-10.65,22.1-11.34,25.52-1.97,28.39,25.06,37.77,27.66.53.15,35.36-6.21,40.41-6.82Z"/>
        <path class="cls-3" d="M261.14,224.1c-8.29-5.42-16.06-16.36-20.2-25.32-8.81-19.29-9.6-41.3-2.18-61.17,14.57-39.02,50.56-53.69,88.91-39.21,6.52,8.45,11.18,23.18,13.08,33.65,5.12,28.19-3.78,59.69-27.09,77.47-16.1,12.28-32.99,14.93-52.51,14.58Z"/>
        <path class="cls-2" d="M12.35,132.98c.53,1.27.73,3.29.92,4.71,5.89,43.47,29.64,73.6,70.18,90.38,19.53,8.08,39.08,13.58,56.26,26.54,24.5,18.48,34,41.45,38.45,70.83-3.92.78-8.84,1.28-12.87,1.79-29.24,1.3-52.63-1.62-79.75-13.92-35.72-15.79-63.54-45.33-77.16-81.92-12.6-33.75-10.81-65.87,3.96-98.41Z"/>
        <path class="cls-1" d="M195.48,128.19c-2.39,0-4.51-1.72-4.92-4.16-1.57-9.25-10.02-16.06-18.83-15.16-7.56.76-13.97,7.11-15.25,15.11-.43,2.73-2.99,4.58-5.72,4.15-2.73-.43-4.59-3-4.15-5.72,2.01-12.6,11.93-22.26,24.12-23.49,14.16-1.42,27.21,8.87,29.69,23.43.46,2.72-1.37,5.3-4.09,5.77-.28.05-.57.07-.85.07Z"/>
      </g>
      <path class="cls-1" d="M326.69,122.57c-2.03-.86-4.38.09-5.24,2.12-.02.05-1.99,4.62-5.63,9.52-1.75,2.35-3.71,4.55-5.87,6.57-2.6-2.85-5.44-5.48-8.47-7.85-4.79-3.74-10.06-6.83-15.67-9.19-2.04-.85-4.38.1-5.24,2.14-.86,2.04.1,4.38,2.14,5.24,4.96,2.08,9.62,4.81,13.84,8.12,3.39,2.65,6.5,5.66,9.26,8.97,1.68,8.43,2.22,17.03,1.6,25.58-.58,7.97-2.17,15.86-4.72,23.44-.7,2.09.42,4.36,2.52,5.07.42.14.85.21,1.28.21,1.67,0,3.23-1.05,3.79-2.73,2.77-8.22,4.49-16.77,5.12-25.41.64-8.82.15-17.69-1.47-26.4,3.1-2.71,5.89-5.73,8.32-8.99,4.25-5.71,6.49-10.96,6.58-11.18.21-.51.32-1.04.32-1.55,0-1.56-.92-3.04-2.44-3.68Z"/>
    </g>
  </g>
</svg>