<?xml version="1.0" encoding="UTF-8"?>
<svg id="Capa_2" data-name="Capa 2" xmlns="http://www.w3.org/2000/svg" viewBox="0 0 342.14 327.52">
  <defs>
    <style>
      .cls-1 {
        fill: #fff;
      }
    </style>
  </defs>
  <g id="Capa_1-2" data-name="Capa 1">
    <path id="isotypewhite" class="cls-1" d="M12.35,132.98c.53,1.27.73,3.29.92,4.71,5.89,43.47,29.64,73.6,70.18,90.38,19.53,8.08,39.08,13.58,56.26,26.54,24.5,18.48,34,41.45,38.45,70.83-3.92.78-8.84,1.28-12.87,1.79-29.24,1.3-52.63-1.62-79.75-13.92-35.72-15.79-63.54-45.33-77.16-81.92-12.6-33.75-10.81-65.87,3.96-98.41ZM340.74,132.05c-1.9-10.47-6.56-25.2-13.08-33.65-16.51-29.96-46.01-47.18-78.01-56.43-17.94-5.11-36.4-8.16-55.03-9.08-3.12-11.46-6.04-23.59-17.43-29.95-5.36-3-11.7-3.75-17.61-2.09-5.08,1.39-9.35,4.84-11.77,9.53-3.38,6.47-2.61,13.68-.41,20.38.46,1.37.95,2.73,1.49,4.07-5.05.61-39.88,6.97-40.41,6.82-9.38-2.61-12.25-29.64-37.77-27.66-8.58.69-16.54,4.77-22.1,11.34-5.06,5.94-7.46,13.7-6.65,21.46.95,9.06,8.17,18.97,12.86,27.16-13.85,13.49-30.78,28.54-30.64,48.85.18,26.79,8.37,50.2,27.14,69.58,19.29,19.92,40.32,25.38,64.72,35.29,44.93,18.25,67.06,48.51,74.18,95.71,22.31-6.6,41.49-13.76,61.11-26.83,11.6-7.73,17.79-10.82,12.27-26.02-7.24-19.91-18.14-34.29-35.55-46.48l33.1.02c19.52.36,36.41-2.3,52.51-14.58,23.31-17.78,32.21-49.29,27.09-77.47ZM196.33,128.12c-.28.05-.57.07-.85.07-2.39,0-4.51-1.72-4.92-4.16-1.57-9.25-10.02-16.06-18.83-15.16-7.56.76-13.97,7.11-15.25,15.11-.43,2.73-2.99,4.58-5.72,4.15-2.73-.43-4.59-3-4.15-5.72,2.01-12.6,11.93-22.26,24.12-23.49,14.16-1.42,27.21,8.87,29.69,23.43.46,2.72-1.37,5.3-4.09,5.77ZM305.98,205.67c-16.1,12.28-32.99,14.93-52.51,14.58-8.29-5.42-16.06-16.36-20.2-25.32-8.81-19.29-9.59-41.3-2.18-61.17,14.57-39.02,50.56-53.69,88.91-39.21,6.52,8.45,11.18,23.18,13.08,33.65,5.12,28.19-3.78,59.69-27.09,77.47ZM318.99,119.57c-2.03-.86-4.38.09-5.24,2.12-.02.05-1.99,4.62-5.63,9.52-1.75,2.35-3.71,4.55-5.87,6.57-2.6-2.85-5.44-5.48-8.47-7.85-4.79-3.74-10.06-6.83-15.67-9.19-2.04-.85-4.38.1-5.24,2.14-.86,2.04.1,4.38,2.14,5.24,4.96,2.08,9.62,4.81,13.84,8.12,3.39,2.65,6.5,5.66,9.26,8.97,1.68,8.43,2.22,17.03,1.6,25.58-.58,7.97-2.17,15.86-4.72,23.44-.7,2.09.42,4.36,2.52,5.07.42.14.85.21,1.28.21,1.67,0,3.23-1.05,3.79-2.73,2.77-8.22,4.49-16.77,5.12-25.41.64-8.82.15-17.69-1.47-26.4,3.1-2.71,5.89-5.73,8.32-8.99,4.25-5.71,6.49-10.96,6.58-11.18.21-.51.32-1.04.32-1.55,0-1.56-.92-3.04-2.44-3.68Z"/>
  </g>
</svg>