<?xml version="1.0" encoding="UTF-8"?>
<svg id="Capa_2" data-name="Capa 2" xmlns="http://www.w3.org/2000/svg" viewBox="0 0 768.06 234.18">
  <defs>
    <style>
      .cls-1 {
        fill: #302f35;
      }

      .cls-2 {
        fill: #dfaa75;
      }
    </style>
  </defs>
  <g id="Capa_1-2" data-name="Capa 1">
    <g id="logoonlytextblack">
      <path class="cls-1" d="M163.71,113.13c13.98-9.33,20.93-18.57,24.13-34.95,7.99-40.82-19.16-69.82-58.36-75.45-12.96-1.86-26.57-3.61-39.65-2.22C26.52,4.83-.23,21.38.37,89.46c.32,36.4-5.89,96.94,22.35,125.45,22.59,20.04,75.58,20.9,103.28,18.1,2.86-.3,5.71-.65,8.56-1.05,20.4-3.25,42.66-10.08,54.81-27.88,21.57-31.6,12.69-77.57-25.66-90.96ZM92.18,48.38c1.61-.09,3.22-.15,4.83-.18,11.48-.24,24.84.98,33.58,9.32,7.97,7.61,7.96,19.36-.11,26.97-10.58,9.97-25.33,9.21-38.85,9.12-16.08-.53-26.56-3.07-39.04,7.53.65-35.2-.95-49.23,39.59-52.75ZM138,177.84c-16.84,12.08-59.82,13.68-76.51-.08-9.04-7.45-8.46-30.24-8.78-41.92,23.08,14.37,61.99-6.11,85.08,12.78,10.29,8.42,8.2,20.38.21,29.21Z"/>
      <path class="cls-1" d="M589.96,3.57c18.34-1.62,33.69,10.43,32.75,29.04-.57,11.32-6.24,27.33-9.02,38.64-3.6,14.74-6.45,29.65-8.54,44.68,14.03-10.95,27.84-23.13,42.55-32.82,20.72-13.06,45.75,8.1,38.84,30.41-4.69,15.15-34.68,27.27-48.48,34.51,6.33,5.84,14.79,11.82,21.68,17.12,18.65,14.35,48.5,24,31.63,53.6-.85,1.04-1.75,2.04-2.69,2.99-20.19,20.31-40.09,1.6-55.22-13.35-10.35-10.22-20.51-20.36-30.66-30.77,1.57,11.37,5.46,31.74-.96,41.43-12.96,19.56-43.85,14.28-48.3-9.59-1.73-9.28-2.58-18.01-3.36-27.44-3.65-46.11-.17-92.51,10.32-137.57,4.72-20.31,6.28-35.63,29.46-40.89Z"/>
      <path class="cls-1" d="M537.02,149.7c-3.07-43.31-40.72-75.91-84.04-72.76-43.2,3.14-75.7,40.66-72.64,83.85,3.06,43.2,40.52,75.76,83.74,72.78,43.33-2.98,76.01-40.56,72.94-83.88ZM464.8,184.07c-15.86,3.34-31.42-6.81-34.74-22.67-3.32-15.86,6.87-31.4,22.74-34.69,15.83-3.28,31.33,6.87,34.64,22.69,3.31,15.82-6.82,31.34-22.64,34.67Z"/>
      <path class="cls-1" d="M367.7,150.13c-2.82-43.19-40.1-75.95-83.31-73.21-43.33,2.75-76.2,40.13-73.37,83.44,2.83,43.31,40.29,76.1,83.6,73.18,43.2-2.9,75.89-40.22,73.07-83.42ZM295.43,184.09c-15.89,3.35-31.46-6.85-34.74-22.75-3.28-15.9,7-31.42,22.92-34.62,15.81-3.18,31.22,7.01,34.47,22.8,3.26,15.79-6.87,31.24-22.65,34.57Z"/>
      <path class="cls-1" d="M736.11,78.77c6.96-.47,13.88,1.4,19.65,5.32,6.13,4.21,10.37,10.63,11.2,18.02,1.85,16.46.77,34.61.93,51.36-.27,17.17.72,34.45-.4,51.58-1.04,15.8-11.25,23.55-25.96,25.98-6.64-.1-12.52-1.12-18.23-4.73-6.69-4.24-9.8-10.35-11.45-17.91-4.37-19.97-7.66-101.22,2.62-116.59,5.04-7.53,13.02-11.27,21.64-13.03Z"/>
      <path class="cls-2" d="M734.23,11.88c10-1.9,20.25,1.72,26.83,9.49,6.57,7.77,8.45,18.47,4.92,28.01-3.53,9.54-11.92,16.45-21.97,18.07-15.23,2.46-29.62-7.77-32.29-22.96-2.67-15.19,7.36-29.71,22.51-32.6Z"/>
    </g>
  </g>
</svg>