<?xml version="1.0" encoding="UTF-8"?>
<svg id="Capa_2" data-name="Capa 2" xmlns="http://www.w3.org/2000/svg" viewBox="0 0 1179.37 327.52">
  <defs>
    <style>
      .cls-1 {
        fill: #302f35;
      }

      .cls-2 {
        fill: #fff;
      }

      .cls-3 {
        fill: #dfaa75;
      }

      .cls-4 {
        fill: #b9875f;
      }
    </style>
  </defs>
  <g id="Capa_1-2" data-name="Capa 1">
    <g id="logowhite">
      <g>
        <path class="cls-2" d="M575.02,182.68c13.98-9.33,20.93-18.57,24.13-34.95,7.99-40.82-19.16-69.82-58.36-75.45-12.96-1.86-26.57-3.61-39.65-2.22-63.32,4.34-90.07,20.88-89.47,88.96.32,36.4-5.89,96.94,22.35,125.45,22.59,20.04,75.58,20.9,103.28,18.1,2.86-.3,5.71-.65,8.56-1.05,20.4-3.25,42.66-10.08,54.81-27.88,21.57-31.6,12.69-77.57-25.66-90.96ZM503.48,117.94c1.61-.09,3.22-.15,4.83-.18,11.48-.24,24.84.98,33.58,9.32,7.97,7.61,7.96,19.36-.11,26.97-10.58,9.97-25.33,9.21-38.85,9.12-16.08-.53-26.56-3.07-39.04,7.53.65-35.2-.95-49.23,39.59-52.75ZM549.3,247.39c-16.84,12.08-59.82,13.68-76.51-.08-9.04-7.45-8.46-30.24-8.78-41.92,23.08,14.37,61.99-6.11,85.08,12.78,10.29,8.42,8.2,20.38.21,29.21Z"/>
        <path class="cls-2" d="M1001.27,73.13c18.34-1.62,33.69,10.43,32.75,29.04-.57,11.32-6.24,27.33-9.02,38.64-3.6,14.74-6.45,29.65-8.54,44.68,14.03-10.95,27.84-23.13,42.55-32.82,20.72-13.06,45.75,8.1,38.84,30.41-4.69,15.15-34.68,27.27-48.48,34.51,6.33,5.84,14.79,11.82,21.68,17.12,18.65,14.35,48.5,24,31.63,53.6-.85,1.04-1.75,2.04-2.69,2.99-20.19,20.31-40.09,1.6-55.22-13.35-10.35-10.22-20.51-20.36-30.66-30.77,1.57,11.37,5.46,31.74-.96,41.43-12.96,19.56-43.85,14.28-48.3-9.59-1.73-9.28-2.58-18.01-3.36-27.44-3.65-46.11-.17-92.51,10.32-137.57,4.72-20.31,6.28-35.63,29.46-40.89Z"/>
        <path class="cls-2" d="M948.33,219.25c-3.07-43.31-40.72-75.91-84.04-72.76-43.2,3.14-75.7,40.66-72.64,83.85,3.06,43.2,40.52,75.76,83.74,72.78,43.33-2.98,76.01-40.56,72.94-83.88ZM876.11,253.63c-15.86,3.34-31.42-6.81-34.74-22.67-3.32-15.86,6.87-31.4,22.74-34.69,15.83-3.28,31.33,6.87,34.64,22.69,3.31,15.82-6.82,31.34-22.64,34.67Z"/>
        <path class="cls-2" d="M779.01,219.68c-2.82-43.19-40.1-75.95-83.31-73.21-43.33,2.75-76.2,40.13-73.37,83.44,2.83,43.31,40.29,76.1,83.6,73.18,43.2-2.9,75.89-40.22,73.07-83.42ZM706.73,253.65c-15.89,3.35-31.46-6.85-34.74-22.75-3.28-15.9,7-31.42,22.92-34.62,15.81-3.18,31.22,7.01,34.47,22.8,3.26,15.79-6.87,31.24-22.65,34.57Z"/>
        <path class="cls-2" d="M1147.42,148.33c6.96-.47,13.88,1.4,19.65,5.32,6.13,4.21,10.37,10.63,11.2,18.02,1.85,16.46.77,34.61.93,51.36-.27,17.17.72,34.45-.4,51.58-1.04,15.8-11.25,23.55-25.96,25.98-6.64-.1-12.52-1.12-18.23-4.73-6.69-4.24-9.8-10.35-11.45-17.91-4.37-19.97-7.66-101.22,2.62-116.59,5.04-7.53,13.02-11.27,21.64-13.03Z"/>
        <path class="cls-3" d="M1145.54,81.43c10-1.9,20.25,1.72,26.83,9.49,6.57,7.77,8.45,18.47,4.92,28.01-3.53,9.54-11.92,16.45-21.97,18.07-15.23,2.46-29.62-7.77-32.29-22.96-2.67-15.19,7.36-29.71,22.51-32.6Z"/>
      </g>
      <g>
        <g>
          <path class="cls-3" d="M148.89,34.84c-.54-1.34-1.03-2.7-1.49-4.07-2.2-6.7-2.97-13.91.41-20.38,2.42-4.68,6.69-8.14,11.77-9.52,5.92-1.66,12.25-.91,17.61,2.09,11.39,6.35,14.31,18.49,17.43,29.95,18.63.92,37.09,3.96,55.03,9.07,31.99,9.25,61.49,26.47,78.01,56.43,6.52,8.45,11.18,23.18,13.08,33.65,5.12,28.19-3.78,59.69-27.09,77.47-16.1,12.28-32.99,14.93-52.51,14.58l-33.1-.02c17.41,12.19,28.31,26.57,35.55,46.48,5.53,15.2-.67,18.29-12.27,26.02-19.62,13.07-38.8,20.23-61.11,26.83-7.12-47.2-29.25-77.46-74.18-95.71-24.39-9.91-45.43-15.38-64.72-35.29-18.77-19.38-26.96-42.78-27.14-69.58-.14-20.31,16.79-35.37,30.64-48.85-4.69-8.19-11.91-18.1-12.86-27.16-.81-7.76,1.59-15.52,6.65-21.46,5.56-6.57,13.52-10.65,22.1-11.34,25.52-1.97,28.39,25.06,37.77,27.66.53.15,35.36-6.21,40.41-6.82Z"/>
          <path class="cls-4" d="M261.14,224.1c-8.29-5.42-16.06-16.36-20.2-25.32-8.81-19.29-9.6-41.3-2.18-61.17,14.57-39.02,50.56-53.69,88.91-39.21,6.52,8.45,11.18,23.18,13.08,33.65,5.12,28.19-3.78,59.69-27.09,77.47-16.1,12.28-32.99,14.93-52.51,14.58Z"/>
          <path class="cls-3" d="M12.35,132.98c.53,1.27.73,3.29.92,4.71,5.89,43.47,29.64,73.6,70.18,90.38,19.53,8.08,39.08,13.58,56.26,26.54,24.5,18.48,34,41.45,38.45,70.83-3.92.78-8.84,1.28-12.87,1.79-29.24,1.3-52.63-1.62-79.75-13.92-35.72-15.79-63.54-45.33-77.16-81.92-12.6-33.75-10.81-65.87,3.96-98.41Z"/>
          <path class="cls-1" d="M195.48,128.19c-2.39,0-4.51-1.72-4.92-4.16-1.57-9.25-10.02-16.06-18.83-15.16-7.56.76-13.97,7.11-15.25,15.11-.43,2.73-2.99,4.58-5.72,4.15-2.73-.43-4.59-3-4.15-5.72,2.01-12.6,11.93-22.26,24.12-23.49,14.16-1.42,27.21,8.87,29.69,23.43.46,2.72-1.37,5.3-4.09,5.77-.28.05-.57.07-.85.07Z"/>
        </g>
        <path class="cls-1" d="M326.69,122.57c-2.03-.86-4.38.09-5.24,2.12-.02.05-1.99,4.62-5.63,9.52-1.75,2.35-3.71,4.55-5.87,6.57-2.6-2.85-5.44-5.48-8.47-7.85-4.79-3.74-10.06-6.83-15.67-9.19-2.04-.85-4.38.1-5.24,2.14-.86,2.04.1,4.38,2.14,5.24,4.96,2.08,9.62,4.81,13.84,8.12,3.39,2.65,6.5,5.66,9.26,8.97,1.68,8.43,2.22,17.03,1.6,25.58-.58,7.97-2.17,15.86-4.72,23.44-.7,2.09.42,4.36,2.52,5.07.42.14.85.21,1.28.21,1.67,0,3.23-1.05,3.79-2.73,2.77-8.22,4.49-16.77,5.12-25.41.64-8.82.15-17.69-1.47-26.4,3.1-2.71,5.89-5.73,8.32-8.99,4.25-5.71,6.49-10.96,6.58-11.18.21-.51.32-1.04.32-1.55,0-1.56-.92-3.04-2.44-3.68Z"/>
      </g>
    </g>
  </g>
</svg>